<svg id="dim_sum" data-name="dim sum" xmlns="http://www.w3.org/2000/svg" viewBox="0 0 96.6 96.6">
  <defs>
    <style>
      .cls-1 {
        fill: #f9c19b;
        stroke: #df9b5f;
      }

      .cls-1, .cls-2, .cls-3 {
        stroke-miterlimit: 10;
      }

      .cls-2 {
        fill: #f0e154;
      }

      .cls-2, .cls-3, .cls-4 {
        stroke: #040500;
      }

      .cls-3, .cls-4 {
        fill: none;
      }

      .cls-4 {
        stroke-miterlimit: 10;
      }
    </style>
  </defs>
  <title>Can-sponge-cake</title>
  <circle class="cls-1" cx="48.3" cy="48.3" r="47.8"/>
  <circle class="cls-1" cx="48.1" cy="48.3" r="42"/>
  <path id="cake" class="cls-2" d="M60.5,25.2c-4.7-.7-17.2,2.6-17.2,2.6S21.6,35.4,18.4,41.7s-2.6,14,0,16.9,1.3,8.7,3.9,9.7,40.1,5.2,46.6,2.3,3.6-10.7,3.9-26.5C72.8,43.9,62.1,25.4,60.5,25.2Z"/>
  <path class="cls-3" d="M28.8,43.9c8.1,1.6,12.2,1.6,17.3,0S58.2,31,58.2,31"/>
  <path class="cls-3" d="M25.5,68.8c-1.6-3.8-2.3-7.4,1.9-10.7s10-9.1,20.1-10.4,9.4,1,15.9-4.5h9.4s0,24.6-1.6,25.6S27.1,72.6,25.5,68.8Z"/>
  <path class="cls-3" d="M46,55.6a4.42,4.42,0,0,1-1.5.5c-3.8.7-7.6-3.1-9.3-.5-1.9,2.9,1.6,2.9,1.6,2.9s-8.4,2.2-4.2,3.4S46,55.6,46,55.6Z"/>
  <ellipse class="cls-3" cx="55.5" cy="52.7" rx="2.5" ry="2"/>
  <ellipse class="cls-4" cx="62.83" cy="48.3" rx="4.3" ry="1.8" transform="translate(-15.75 58.58) rotate(-45)"/>
  <circle class="cls-3" cx="68.8" cy="49.1" r="1.6"/>
</svg>
