<?xml version="1.0" encoding="utf-8"?>
<!-- Generator: Adobe Illustrator 24.0.1, SVG Export Plug-In . SVG Version: 6.00 Build 0)  -->
<svg version="1.1" id="dim_sum_1_" xmlns="http://www.w3.org/2000/svg" xmlns:xlink="http://www.w3.org/1999/xlink" x="0px" y="0px"
	 viewBox="0 0 96.6 96.6" style="enable-background:new 0 0 96.6 96.6;" xml:space="preserve">
<style type="text/css">
	.st0{fill:#F9C19B;stroke:#DF9B5F;stroke-miterlimit:10;}
	.st1{fill:#F0E154;stroke:#040500;stroke-miterlimit:10;}
	.st2{fill:none;stroke:#040500;stroke-miterlimit:10;}
</style>
<circle class="st0" cx="48.3" cy="48.3" r="47.8"/>
<circle class="st0" cx="48.1" cy="48.3" r="42"/>
<path id="cake" class="st1" d="M60.5,25.2c-4.7-0.7-17.2,2.6-17.2,2.6s-21.7,7.6-24.9,13.9s-2.6,14,0,16.9c2.6,2.9,1.3,8.7,3.9,9.7
	s40.1,5.2,46.6,2.3c6.5-2.9,3.6-10.7,3.9-26.5C72.8,43.9,62.1,25.4,60.5,25.2z"/>
<path class="st2" d="M28.8,43.9c8.1,1.6,12.2,1.6,17.3,0C51.1,42.3,58.2,31,58.2,31"/>
<path class="st2" d="M25.5,68.8c-1.6-3.8-2.3-7.4,1.9-10.7s10-9.1,20.1-10.4s9.4,1,15.9-4.5h9.4c0,0,0,24.6-1.6,25.6
	C69.5,69.8,27.1,72.6,25.5,68.8z"/>
<path class="st2" d="M46,55.6c-0.5,0.3-1,0.4-1.5,0.5c-3.8,0.7-7.6-3.1-9.3-0.5c-1.9,2.9,1.6,2.9,1.6,2.9s-8.4,2.2-4.2,3.4
	C36.8,63,46,55.6,46,55.6z"/>
<ellipse class="st2" cx="55.5" cy="52.7" rx="2.5" ry="2"/>
<ellipse transform="matrix(0.7071 -0.7071 0.7071 0.7071 -15.7269 58.5573)" class="st2" cx="62.8" cy="48.3" rx="4.3" ry="1.8"/>
<circle class="st2" cx="68.8" cy="49.1" r="1.6"/>
</svg>
