<?xml version="1.0" encoding="utf-8"?>
<!-- Generator: Adobe Illustrator 24.0.1, SVG Export Plug-In . SVG Version: 6.00 Build 0)  -->
<svg version="1.1" id="dim_sum_1_" xmlns="http://www.w3.org/2000/svg" xmlns:xlink="http://www.w3.org/1999/xlink" x="0px" y="0px"
	 viewBox="0 0 96.6 96.6" style="enable-background:new 0 0 96.6 96.6;" xml:space="preserve">
<style type="text/css">
	.st0{fill:#F9C19B;stroke:#DF9B5F;stroke-miterlimit:10;}
	.st1{fill:#D3731E;stroke:#000000;stroke-miterlimit:10;}
</style>
<circle class="st0" cx="48.3" cy="48.3" r="47.8"/>
<circle class="st0" cx="48.1" cy="48.3" r="42"/>
<path id="feet" class="st1" d="M42.5,56.3c0.4-1.4,1-2.6,1.9-3.7c1.1-1.4,0.7-1.8,0.3-3.5c-0.3-1-1.5-4.4-0.7-5.4
	c1.2-1.4,4.5,6.6,5.9,8.9c1.4,2.3,13.4,14.1,14.2,16.1c0.8,2,2.6,4.3,5.1,4.4s6.5-1,7.9-3.2c1.3-2.2-0.3-3.2-2.2-4.1
	c-1.9-0.9-5.5,0.1-6.2-1.5C68,62.8,62.2,54,61,53.8c-1.2-0.2-6.8-6-7.3-7.5c-0.4-1.5-3.8-5.8-6-7.6s7.4,7.3,11,7.4
	c3.6,0,6.9,1.9,10.6-1.8c3.7-3.6-7.2-3-7.2-3s-10.3-4.6-11.8-6.4c-1.5-1.8-4.4,0.2-7.5-0.7c-3.1-0.8-5.3-3-5.4-3.6
	c-0.1-0.6-6.6-15-7.3-14.9c-0.7,0.1-6.3,4.1-6.3,4.1c1.5,2.1,2.8,6.9,5.5,10.5s4.6,4.8,3.8,5.9c-0.9,1.1-2,10.9-3.2,11.7
	c-1.3,0.8-2,2.3-1.9,3.4c0,1.1-1.1,2.3-1,3.1c0.1,0.9-0.6,4.9,0.8,6.1s3.4-0.2,5.1-2.9c1.8-2.7,1.4-4,2.3-7.7
	c0.9-3.8,3.1-5.7,3.1-5.7s3.2,18.7,3.4,20.5c0.2,1.9,7.8,6.8,9.3,7.5s2.9,0.9,3.7,0.3s1.6-6,0.3-6.6c-1.3-0.6-2.3-1.2-4.2-1.7
	c-1.2-0.3-3.7-6.9-5.4-12.6"/>
<path d="M47.6,58.3c-1.3,1.3-2.1,3-2.1,4.8"/>
<path d="M50.8,64.5c-0.7,1.3-1.2,2.8-1.4,4.3"/>
<path d="M49.8,52.4c0.4,0,0.7-0.3,1-0.6c0.8-0.8,1.7-1.6,2.5-2.4"/>
<path d="M55,58.2c0.7-0.9,1.5-1.7,2.3-2.5"/>
<path d="M60.1,64c1.1-1,2.8-1.4,3.5-2.7"/>
<path d="M64.3,68.5c0.5-0.8,1.1-1.6,1.7-2.4"/>
</svg>
