<svg id="dim_sum" data-name="dim sum" xmlns="http://www.w3.org/2000/svg" viewBox="0 0 96.6 96.6">
  <defs>
    <style>
      .cls-1 {
        fill: #f9c19b;
        stroke: #df9b5f;
      }

      .cls-1, .cls-2 {
        stroke-miterlimit: 10;
      }

      .cls-2 {
        fill: #d3731e;
        stroke: #000;
      }
    </style>
  </defs>
  <title>chicken-feet</title>
  <circle class="cls-1" cx="48.3" cy="48.3" r="47.8"/>
  <circle class="cls-1" cx="48.1" cy="48.3" r="42"/>
  <path id="feet" class="cls-2" d="M42.5,56.3a10,10,0,0,1,1.9-3.7c1.1-1.4.7-1.8.3-3.5-.3-1-1.5-4.4-.7-5.4,1.2-1.4,4.5,6.6,5.9,8.9S63.3,66.7,64.1,68.7s2.6,4.3,5.1,4.4,6.5-1,7.9-3.2-.3-3.2-2.2-4.1-5.5.1-6.2-1.5S62.2,54,61,53.8s-6.8-6-7.3-7.5-3.8-5.8-6-7.6,7.4,7.3,11,7.4,6.9,1.9,10.6-1.8-7.2-3-7.2-3-10.3-4.6-11.8-6.4-4.4.2-7.5-.7-5.3-3-5.4-3.6-6.6-15-7.3-14.9-6.3,4.1-6.3,4.1c1.5,2.1,2.8,6.9,5.5,10.5s4.6,4.8,3.8,5.9-2,10.9-3.2,11.7A3.93,3.93,0,0,0,28,51.3c0,1.1-1.1,2.3-1,3.1s-.6,4.9.8,6.1,3.4-.2,5.1-2.9,1.4-4,2.3-7.7a11.37,11.37,0,0,1,3.1-5.7s3.2,18.7,3.4,20.5,7.8,6.8,9.3,7.5,2.9.9,3.7.3,1.6-6,.3-6.6a21.43,21.43,0,0,0-4.2-1.7c-1.2-.3-3.7-6.9-5.4-12.6"/>
  <path d="M47.6,58.3a6.84,6.84,0,0,0-2.1,4.8"/>
  <path d="M50.8,64.5a12.79,12.79,0,0,0-1.4,4.3"/>
  <path d="M49.8,52.4a1.52,1.52,0,0,0,1-.6c.8-.8,1.7-1.6,2.5-2.4"/>
  <path d="M55,58.2a27.25,27.25,0,0,1,2.3-2.5"/>
  <path d="M60.1,64c1.1-1,2.8-1.4,3.5-2.7"/>
  <path d="M64.3,68.5c.5-.8,1.1-1.6,1.7-2.4"/>
</svg>
