<?xml version="1.0" encoding="utf-8"?>
<!-- Generator: Adobe Illustrator 24.0.1, SVG Export Plug-In . SVG Version: 6.00 Build 0)  -->
<svg version="1.1" id="dim_sum_1_" xmlns="http://www.w3.org/2000/svg" xmlns:xlink="http://www.w3.org/1999/xlink" x="0px" y="0px"
	 viewBox="0 0 95 95" style="enable-background:new 0 0 95 95;" xml:space="preserve">
<style type="text/css">
	.st0{fill:#F9C19B;stroke:#DF9B5F;stroke-miterlimit:10;}
</style>
<path id="cover" class="st0" d="M8.6,61.5l15.2-16.1 M6.6,53.3l9.3-7.8 M19.2,50.2L8.8,33 M6.7,41l4.9,8.1 M8.8,33L19,24 M11.9,38
	l15.3-11.9 M22.2,29.5L16.6,20 M21.5,15.4l5.7,10.8 M11.2,67.2l3.4-4.5 M11.4,58.2l9.1,11.9 M15.7,73.9l9.3-7.3 M28.1,71.1
	L16.3,53.4 M32.6,67L20,78.3 M25.3,82.3l18.6-12.8 M23.6,55.7l14.3,18 M34.2,76.1l12.1,11.9 M38.1,87.7l4.3-3.5 M57.7,87.5
	l-13.6-9.2 M45.1,88.7l8-4.3 M62.4,86l-7.5-7.5 M63.7,76.5l5.7,6 M49,81.5l15.9-10.3 M57,80.6L74.4,70 M54.1,70.9L40.4,81.7
	 M35.2,59.3l13.3,15.6 M44.8,60.1l13.5,15.3 M55.9,61l12,12.9 M67.3,62L79,74.2 M61.3,66.8l11-10 M70.6,65.5l16.3-14.7 M76.4,60.3
	l7,7.6 M84.8,58.3l1.7,2.6 M79.9,63.2l8.1-7.9 M68.4,52.3L49.3,65.2 M55.1,52.6L38.7,63.4 M19.8,59.2l12.6-11.5 M27.7,51.7l-11.1-18
	 M25.4,36.5l12.7,19.9 M30.6,64.4l12.5-13.3 M44.4,47.4l-8.7-11.9 M47.7,53.1l1.8,3.1 M45.3,37.3l16.8,19.2 M57.7,40.1l14.6,16.6
	 M68.8,39.4l13,16 M86.9,50.8l-7.8-9.9 M86.1,42.8l2.7,3.2 M83,45.8l5-6.4 M86.3,33.3L73.8,45.6 M79.4,29.9l-17,15.4 M21,40.8
	l14.3-16.4 M46.4,25.9L27.7,40.2 M40,41.4l18-14 M51.4,44.2l17.9-14.5 M24.4,19.4L40.8,8 M40.3,30.6L28.9,16.3 M39.2,15.5l12,17.3
	 M48.6,15.7l14.4,19.1 M58.2,17l15.2,18 M67.9,18.5l16.6,16.3 M79.6,22l-3.8,3.2 M72.9,14.9l-9.3,8.3 M66.2,10.6L53.5,22.1
	 M58.4,7.6L43.1,21.2 M48.4,6.2l4.8,6.1 M39.9,6.9l3.8,5.3 M32.3,20.6L49.6,7.7 M36.9,47.6c0,0-0.6,1.7,2.2,2.8
	c2.8,1.1,14.9,2.9,16.6,1.6c1.7-1.3,1.5-2.7-2.3-2.8C49.6,49.1,40,47.3,40,46.5s-1.4-3.2-3.2-2.7c-1.8,0.5-1.5,0.9-1.5,0.9
	S34.1,46.3,36.9,47.6z M40.9,51l2.1-3.4 M43.1,51.2l2.8-2.9 M45.1,51.8l1.9-3.3 M47,52.1l1.8-3.3 M48.7,52.4l1.8-3.4 M50.7,52.4
	l2.1-3.2 M52.7,52.5l1.6-3.2 M38.3,50l1.9-2.7 M0.5,46.4c-0.6,25.9,20,47.5,45.9,48s47.5-20,48-45.9s-20-47.5-45.9-48
	S1.1,20.5,0.5,46.4z M6.2,46.5C5.7,69.3,23.8,88.2,46.6,88.7c22.8,0.5,41.7-17.6,42.2-40.4C89.3,25.6,71.2,6.7,48.4,6.2
	S6.7,23.7,6.2,46.5z"/>
</svg>
