<svg id="dim_sum" data-name="dim sum" xmlns="http://www.w3.org/2000/svg" viewBox="0 0 96.6 96.6">
  <defs>
    <style>
      .cls-1 {
        fill: #f9c19b;
        stroke: #df9b5f;
      }

      .cls-1, .cls-2, .cls-3 {
        stroke-miterlimit: 10;
      }

      .cls-2 {
        fill: #d9a04a;
        stroke: #060200;
      }

      .cls-3 {
        fill: #efef6a;
        stroke: #000;
      }
    </style>
  </defs>
  <title>egg-tart</title>
  <circle class="cls-1" cx="48.3" cy="48.3" r="47.8"/>
  <circle class="cls-1" cx="48.1" cy="48.3" r="42"/>
  <path class="cls-2" d="M79.6,33.5a4.87,4.87,0,0,0,.1,1.2c0,.2.1.4.1.6A28.67,28.67,0,0,1,80.9,41c0,1.4-1.9-.6-1.9.8,0,.5-2.5,2.1-3.6,1.4-2-1.4-1.9.3-3.1.9-2.4,1.1-4.6,3-7.2,2.5-2.2-.4-4.4-2.5-6.4-1.4-1.7.9-2.3,3.9-4.2,3.5a3.29,3.29,0,0,1-1.3-.7,9.93,9.93,0,0,0-11.5.6c-.7.5-1.3,1.2-2.2,1.2s-1.8-.7-2.6-1.3a8.25,8.25,0,0,0-9.7.4A5.27,5.27,0,0,1,25.7,50a2.75,2.75,0,0,1-2.9-1.4c-.6-1-.9-2.1-1.5-3.1-1.6-2.8-8.9-5.3-8.3-2.2,3.6,18.2.7,16.9,9.4,21.9,10.1,5.8,44.2,3,51.2-.2,6.5-3,8.7-21.4,7.3-24.1"/>
  <path class="cls-2" d="M15.4,31.9c.3,4.1-1,7.3-2.6,11.2"/>
  <path class="cls-2" d="M15.5,33.9a39.72,39.72,0,0,1-2.4,7.9s5.7-.1,7.4,2.7,3.2,7.2,5.3,5.6,6.6-4.1,9.4-2.4,2.2,3.4,4.4,2.2,3-2.8,7.6-3.3,5.3,2.1,7.4,2.2,2.5-3.2,4.2-3.5,1.4-.6,2.8,0,3.9,1.9,5.6,1.3a44.37,44.37,0,0,0,6.2-3.3c1.1-.7,1.1-.2,2.2-.1a4.06,4.06,0,0,0,4.2-1.9c1.1-2,1.3-.3,1.3-.3s-1.1-5-1.2-6.2"/>
  <ellipse class="cls-2" cx="47.7" cy="31.9" rx="32.3" ry="9.9"/>
  <ellipse id="egg-tart" class="cls-3" cx="48.3" cy="35.3" rx="28.6" ry="6.5"/>
</svg>
