<?xml version="1.0" encoding="utf-8"?>
<!-- Generator: Adobe Illustrator 24.0.1, SVG Export Plug-In . SVG Version: 6.00 Build 0)  -->
<svg version="1.1" id="dim_sum_1_" xmlns="http://www.w3.org/2000/svg" xmlns:xlink="http://www.w3.org/1999/xlink" x="0px" y="0px"
	 viewBox="0 0 96.6 96.6" style="enable-background:new 0 0 96.6 96.6;" xml:space="preserve">
<style type="text/css">
	.st0{fill:#F9C19B;stroke:#DF9B5F;stroke-miterlimit:10;}
	.st1{fill:#D9A04A;stroke:#060200;stroke-miterlimit:10;}
	.st2{fill:#EFEF6A;stroke:#000000;stroke-miterlimit:10;}
</style>
<circle class="st0" cx="48.3" cy="48.3" r="47.8"/>
<circle class="st0" cx="48.1" cy="48.3" r="42"/>
<path class="st1" d="M79.6,33.5c0,0.4,0,0.8,0.1,1.2c0,0.2,0.1,0.4,0.1,0.6c0.4,1.9,1.1,3.8,1.1,5.7c0,1.4-1.9-0.6-1.9,0.8
	c0,0.5-2.5,2.1-3.6,1.4c-2-1.4-1.9,0.3-3.1,0.9c-2.4,1.1-4.6,3-7.2,2.5c-2.2-0.4-4.4-2.5-6.4-1.4c-1.7,0.9-2.3,3.9-4.2,3.5
	c-0.5-0.1-0.9-0.4-1.3-0.7c-3.4-2.3-8.3-2-11.5,0.6c-0.7,0.5-1.3,1.2-2.2,1.2c-1,0.1-1.8-0.7-2.6-1.3c-2.9-2-7.1-1.8-9.7,0.4
	c-0.5,0.4-0.9,0.9-1.5,1.1c-1.1,0.3-2.3-0.4-2.9-1.4c-0.6-1-0.9-2.1-1.5-3.1c-1.6-2.8-8.9-5.3-8.3-2.2c3.6,18.2,0.7,16.9,9.4,21.9
	c10.1,5.8,44.2,3,51.2-0.2c6.5-3,8.7-21.4,7.3-24.1"/>
<path class="st1" d="M15.4,31.9c0.3,4.1-1,7.3-2.6,11.2"/>
<path class="st1" d="M15.5,33.9c-0.8,4.3-2.4,7.9-2.4,7.9s5.7-0.1,7.4,2.7s3.2,7.2,5.3,5.6s6.6-4.1,9.4-2.4c2.8,1.7,2.2,3.4,4.4,2.2
	s3-2.8,7.6-3.3c4.6-0.6,5.3,2.1,7.4,2.2s2.5-3.2,4.2-3.5s1.4-0.6,2.8,0c1.4,0.6,3.9,1.9,5.6,1.3s5.1-2.6,6.2-3.3s1.1-0.2,2.2-0.1
	c1.1,0.1,3,0.1,4.2-1.9c1.1-2,1.3-0.3,1.3-0.3s-1.1-5-1.2-6.2"/>
<ellipse class="st1" cx="47.7" cy="31.9" rx="32.3" ry="9.9"/>
<ellipse id="egg-tart" class="st2" cx="48.3" cy="35.3" rx="28.6" ry="6.5"/>
</svg>
