<?xml version="1.0" encoding="utf-8"?>
<!-- Generator: Adobe Illustrator 24.0.1, SVG Export Plug-In . SVG Version: 6.00 Build 0)  -->
<svg version="1.1" id="dim_sum_1_" xmlns="http://www.w3.org/2000/svg" xmlns:xlink="http://www.w3.org/1999/xlink" x="0px" y="0px"
	 viewBox="0 0 96.6 96.6" style="enable-background:new 0 0 96.6 96.6;" xml:space="preserve">
<style type="text/css">
	.st0{fill:#F9C19B;stroke:#DF9B5F;stroke-miterlimit:10;}
	.st1{fill:#D2A344;stroke:#060200;stroke-width:1;stroke-miterlimit:10.0001;}
</style>
<circle class="st0" cx="48.3" cy="48.3" r="47.8"/>
<circle id="plate" class="st0" cx="48.1" cy="48.3" r="42"/>
<path id="roll" class="st1" d="M20.3,51.6c3.8-1.6,9,1.8,11.5,7.8s1.6,12.1-2.2,13.7c-3.8,1.6-9-1.8-11.5-7.8
	C15.5,59.3,16.5,53.2,20.3,51.6z M20.3,51.5l46.7-22 M66.7,29.4c1.3-0.5,2.9-0.1,4,0.7s2.1,1.9,2.9,3.1c2,2.8,3.6,5.8,4.5,9
	c0.5,1.9,0.7,4.2-0.6,5.6c-1.4,1.4-2.6,0.5-3.8,2.1L29.5,73 M29.9,55.1c1.5,2.6,2.3,1.9,4,12.3v0.8l32-38.1 M68.1,29.2l-2.7,1.3
	l-43,20.1c0,0,4.2-0.3,7.6,4.6c1.8,2.5,3.3,6.4,4,12.3c0.3,2.5-4.1,2.9-6.5,3.3c-0.6,0.1-1.2,0.1-1.8-0.1c-0.6-0.2-1-0.6-1.4-1.1
	c-2.6-2.6-5.1-5.9-5.1-9.6c0-1.3,0.4-2.8,1.5-3.5c0.4-0.3,0.9-0.4,1.4-0.6c2-0.5,4.4-0.1,5.4,1.6c0.7,1.2,0.6,2.6,0.4,4
	c-0.1,0.6-0.1,1.2-0.4,1.8c-0.3,0.5-1,0.9-1.5,0.7c-0.4-0.1-0.7-0.5-1-0.9c-1-1.5-1.5-3.4-1.4-5.2c0.5,0,0.9,0.5,0.8,1"/>
</svg>
