<?xml version="1.0" encoding="utf-8"?>
<!-- Generator: Adobe Illustrator 24.0.1, SVG Export Plug-In . SVG Version: 6.00 Build 0)  -->
<svg version="1.1" id="dim_sum_1_" xmlns="http://www.w3.org/2000/svg" xmlns:xlink="http://www.w3.org/1999/xlink" x="0px" y="0px"
	 viewBox="0 0 96.6 96.6" style="enable-background:new 0 0 96.6 96.6;" xml:space="preserve">
<style type="text/css">
	.st0{fill:#F9C19B;stroke:#DF9B5F;stroke-miterlimit:10;}
	.st1{fill:#D0A551;stroke:#060200;stroke-miterlimit:10;}
	.st2{fill:#FFFFFF;stroke:#000000;stroke-miterlimit:10;}
</style>
<circle class="st0" cx="48.3" cy="48.3" r="47.8"/>
<circle class="st0" cx="48.1" cy="48.3" r="42"/>
<ellipse id="fried-sesame-ball" class="st1" cx="48.8" cy="49.6" rx="20.4" ry="21.8"/>
<ellipse transform="matrix(0.9955 -9.511298e-02 9.511298e-02 0.9955 -3.6684 4.8396)" class="st2" cx="48.9" cy="40.9" rx="1.5" ry="1.1"/>
<ellipse transform="matrix(0.9955 -9.511298e-02 9.511298e-02 0.9955 -4.0477 5.5972)" class="st2" cx="56.7" cy="45.3" rx="1.1" ry="1.5"/>
<ellipse transform="matrix(0.866 -0.5 0.5 0.866 -16.6075 30.9585)" class="st2" cx="49.5" cy="46.5" rx="1.1" ry="1.5"/>
<ellipse transform="matrix(0.5 -0.866 0.866 0.5 -21.6619 66.5235)" class="st2" cx="46.8" cy="52" rx="1.1" ry="1.5"/>
<ellipse transform="matrix(0.9955 -9.511298e-02 9.511298e-02 0.9955 -4.6336 5.5928)" class="st2" cx="56.4" cy="51.4" rx="1.5" ry="1.1"/>
<ellipse transform="matrix(0.9955 -9.511298e-02 9.511298e-02 0.9955 -4.2202 4.3982)" class="st2" cx="44" cy="46.5" rx="1.5" ry="1.1"/>
<ellipse transform="matrix(0.9344 -0.3563 0.3563 0.9344 -17.2932 17.9053)" class="st2" cx="40" cy="55.9" rx="1.5" ry="1.1"/>
<ellipse transform="matrix(0.1356 -0.9908 0.9908 0.1356 -16.2439 97.9207)" class="st2" cx="48" cy="58.3" rx="1.1" ry="1.5"/>
<ellipse transform="matrix(9.499528e-02 -0.9955 0.9955 9.499528e-02 -13.6743 78.9504)" class="st2" cx="36.6" cy="47" rx="1.3" ry="1.5"/>
<ellipse transform="matrix(0.3115 -0.9502 0.9502 0.3115 -17.0958 92.9424)" class="st2" cx="55.6" cy="58.3" rx="1.1" ry="1.5"/>
</svg>
