<svg id="dim_sum" data-name="dim sum" xmlns="http://www.w3.org/2000/svg" viewBox="0 0 96.6 96.6">
  <defs>
    <style>
      .cls-1 {
        fill: #f9c19b;
        stroke: #df9b5f;
        stroke-miterlimit: 10;
      }

      .cls-2 {
        fill: #d2a344;
        stroke: #060200;
        stroke-miterlimit: 10;
      }
    </style>
  </defs>
  <title>fried-spring-roll</title>
  <circle class="cls-1" cx="48.3" cy="48.3" r="47.8"/>
  <circle id="plate" class="cls-1" cx="48.1" cy="48.3" r="42"/>
  <path id="roll" class="cls-2" d="M20.3,51.6c3.8-1.6,9,1.8,11.5,7.8s1.6,12.1-2.2,13.7-9-1.8-11.5-7.8S16.5,53.2,20.3,51.6Zm0-.1L67,29.5m-.3-.1a4.43,4.43,0,0,1,4,.7,12.29,12.29,0,0,1,2.9,3.1,29.24,29.24,0,0,1,4.5,9c.5,1.9.7,4.2-.6,5.6s-2.6.5-3.8,2.1L29.5,73m.4-17.9c1.5,2.6,2.3,1.9,4,12.3v.8l32-38.1m2.2-.9-2.7,1.3-43,20.1s4.2-.3,7.6,4.6c1.8,2.5,3.3,6.4,4,12.3.3,2.5-4.1,2.9-6.5,3.3a3.67,3.67,0,0,1-1.8-.1,3,3,0,0,1-1.4-1.1c-2.6-2.6-5.1-5.9-5.1-9.6a4.11,4.11,0,0,1,1.5-3.5,5.91,5.91,0,0,1,1.4-.6c2-.5,4.4-.1,5.4,1.6a6.05,6.05,0,0,1,.4,4,5.84,5.84,0,0,1-.4,1.8A1.4,1.4,0,0,1,26,64a2.13,2.13,0,0,1-1-.9,8.69,8.69,0,0,1-1.4-5.2.85.85,0,0,1,.8,1"/>
</svg>
