<?xml version="1.0" encoding="utf-8"?>
<!-- Generator: Adobe Illustrator 24.0.1, SVG Export Plug-In . SVG Version: 6.00 Build 0)  -->
<svg version="1.1" id="dim_sum_1_" xmlns="http://www.w3.org/2000/svg" xmlns:xlink="http://www.w3.org/1999/xlink" x="0px" y="0px"
	 viewBox="0 0 96.6 96.6" style="enable-background:new 0 0 96.6 96.6;" xml:space="preserve">
<style type="text/css">
	.st0{fill:#F9C19B;stroke:#DF9B5F;stroke-miterlimit:10;}
	.st1{fill:#F3F4CB;stroke:#000000;stroke-miterlimit:10;}
	.st2{fill:none;stroke:#000000;stroke-miterlimit:10;}
</style>
<circle class="st0" cx="48" cy="48.5" r="47.8"/>
<circle class="st0" cx="47.8" cy="48.5" r="42"/>
<path id="shrimp-dumpling" class="st1" d="M20.7,22.3c12.9,5.1,30.9,18,54,0c0,0,1.1,9.4,5.1,16.1c2.1,3.5,11,17.1-2.6,30.6
	c-4.7,4.7-16.4,11.2-28.5,10.6C24.9,78.2,21.5,72.7,16.2,66c-8.9-11.5-1.6-24.4-0.1-27c0.2-0.4,0.4-0.8,0.5-1.2L20.7,22.3z"/>
<path class="st2" d="M26.5,42.6c-0.4,5.5-1.5,10.9-3.2,16.1 M39.3,43.9c0,6.4,0,12.9,0,19.3 M53.3,64.5c-1.2-5-3.5-14.6-4.6-19.5
	 M60.9,43c0.2,0.9,0.4,1.8,0.6,2.7c1.2,5.2,2.4,10.3,3.6,15.5 M70.7,41.3c0.3,6.2,2.5,12.2,6.2,17.2"/>
</svg>
