<svg id="dim_sum" data-name="dim sum" xmlns="http://www.w3.org/2000/svg" viewBox="0 0 96.6 96.6">
  <defs>
    <style>
      .cls-1 {
        fill: #f9c19b;
        stroke: #df9b5f;
      }

      .cls-1, .cls-2, .cls-3 {
        stroke-miterlimit: 10;
      }

      .cls-2 {
        fill: #f3f4cb;
      }

      .cls-2, .cls-3 {
        stroke: #000;
      }

      .cls-3 {
        fill: none;
      }
    </style>
  </defs>
  <title>shrimp-dumpling</title>
  <circle class="cls-1" cx="48.3" cy="48.3" r="47.8"/>
  <circle class="cls-1" cx="48.1" cy="48.3" r="42"/>
  <path id="shrimp-dumpling" class="cls-2" d="M20.7,22.3c12.9,5.1,30.9,18,54,0,0,0,1.1,9.4,5.1,16.1,2.1,3.5,11,17.1-2.6,30.6-4.7,4.7-16.4,11.2-28.5,10.6C24.9,78.2,21.5,72.7,16.2,66c-8.9-11.5-1.6-24.4-.1-27a6.12,6.12,0,0,0,.5-1.2Z" transform="translate(0.3 -0.2)"/>
  <path class="cls-3" d="M26.5,42.6a67.6,67.6,0,0,1-3.2,16.1m16-14.8V63.2m14,1.3c-1.2-5-3.5-14.6-4.6-19.5m12.2-2,.6,2.7c1.2,5.2,2.4,10.3,3.6,15.5m5.6-19.9a31.58,31.58,0,0,0,6.2,17.2" transform="translate(0.3 -0.2)"/>
</svg>
