<?xml version="1.0" encoding="utf-8"?>
<!-- Generator: Adobe Illustrator 24.0.1, SVG Export Plug-In . SVG Version: 6.00 Build 0)  -->
<svg version="1.1" id="dim_sum_1_" xmlns="http://www.w3.org/2000/svg" xmlns:xlink="http://www.w3.org/1999/xlink" x="0px" y="0px"
	 viewBox="0 0 96.6 96.6" style="enable-background:new 0 0 96.6 96.6;" xml:space="preserve">
<style type="text/css">
	.st0{fill:#F9C19B;stroke:#DF9B5F;stroke-miterlimit:10;}
	.st1{fill:#E1C835;stroke:#000000;stroke-miterlimit:10;}
	.st2{fill:none;stroke:#000000;stroke-miterlimit:10;}
	.st3{fill:none;stroke:#060200;stroke-miterlimit:10;}
	.st4{fill:#F24119;stroke:#000000;stroke-miterlimit:10;}
</style>
<circle class="st0" cx="48.3" cy="48.3" r="47.8"/>
<circle class="st0" cx="48.1" cy="48.3" r="42"/>
<path id="siu-mai" class="st1" d="M39.4,19.1c-2.1-1.7-5.3-0.2-7.3,1.6s-4.2,4-6.9,3.8c-0.8-0.1-1.7-0.4-2.4,0
	c-0.9,0.5-0.5,1.8-0.8,2.8c-3.6,14.4,1.7,26.7,0.9,40c-0.1,1.2-0.1,2.6,0.8,3.5c0.7,0.7,1.8,0.8,2.8,0.9C38.2,72.6,54,72.1,65.6,73
	c3.8,0.3,6.6-1.5,6.6-1.5c1-1.4,1.4-3.3,1.6-5C75.5,53.3,74.1,41,71,24.6c-3.4-0.3-6.6-1.1-6.1-4.5c-2-0.4-4-0.5-6.1-0.3"/>
<path class="st2" d="M21.9,30.6c0.6-0.4,1.3,0.2,1.8,0.7c2.1,2.2,5.3,3.3,8.3,3s5.9-2.1,7.4-4.8c1,1.2-1-1.1,0,0
	c2.1,2.3,8.3,7.1,11.4,6.2c3-0.9,5.5-3.6,6-6.7c1.3,2.9,3.7,5.4,6.8,6.2c3.1,0.8,6.8-0.4,8.3-3.2"/>
<line class="st3" x1="39.4" y1="30.3" x2="39.2" y2="52.4"/>
<line class="st3" x1="56.9" y1="30.6" x2="56.9" y2="53.1"/>
<path class="st4" d="M59.6,22.3c0,3.7-5.1,6.7-11.4,6.7s-11.4-3-11.4-6.7s5.1-6.7,11.4-6.7S59.6,18.6,59.6,22.3z M48,18.1
	c-0.8-0.3-1.6,0-1.8,0.6c-0.2,0.6,0.3,1.2,1.1,1.5c0.8,0.3,1.6,0,1.8-0.6C49.3,19,48.8,18.4,48,18.1z M45.4,21.3
	c-0.8-0.3-1.6,0-1.8,0.6c-0.2,0.6,0.3,1.2,1.1,1.5c0.8,0.3,1.6,0,1.8-0.6C46.7,22.2,46.2,21.6,45.4,21.3z M52.6,19.6
	c-0.8-0.3-1.6,0-1.8,0.6c-0.2,0.6,0.3,1.2,1.1,1.5c0.8,0.3,1.6,0,1.8-0.6C53.9,20.5,53.4,19.9,52.6,19.6z M46.6,23.4
	c-0.8-0.2-1.6,0.2-1.7,0.8s0.4,1.2,1.3,1.4c0.8,0.2,1.6-0.2,1.7-0.8S47.4,23.6,46.6,23.4z M49.2,21.5c-0.8-0.2-1.6,0.2-1.7,0.8
	c-0.1,0.6,0.4,1.2,1.3,1.4c0.8,0.2,1.6-0.2,1.7-0.8S50,21.6,49.2,21.5z M51.9,23.5c-0.8-0.3-1.6,0-1.8,0.6c-0.2,0.6,0.3,1.2,1.1,1.5
	c0.8,0.3,1.6,0,1.8-0.6C53.2,24.4,52.7,23.7,51.9,23.5z"/>
</svg>
