<svg id="dim_sum" data-name="dim sum" xmlns="http://www.w3.org/2000/svg" viewBox="0 0 96.6 96.6">
  <defs>
    <style>
      .cls-1 {
        fill: #f9c19b;
        stroke: #df9b5f;
      }

      .cls-1, .cls-2, .cls-3, .cls-4, .cls-5 {
        stroke-miterlimit: 10;
      }

      .cls-2 {
        fill: #e1c835;
      }

      .cls-2, .cls-3, .cls-5 {
        stroke: #000;
      }

      .cls-3, .cls-4 {
        fill: none;
      }

      .cls-4 {
        stroke: #060200;
      }

      .cls-5 {
        fill: #f24119;
      }
    </style>
  </defs>
  <title>siu-mai</title>
  <circle class="cls-1" cx="48.3" cy="48.3" r="47.8"/>
  <circle class="cls-1" cx="48.1" cy="48.3" r="42"/>
  <path id="siu-mai" class="cls-2" d="M39.4,19.1c-2.1-1.7-5.3-.2-7.3,1.6s-4.2,4-6.9,3.8c-.8-.1-1.7-.4-2.4,0-.9.5-.5,1.8-.8,2.8-3.6,14.4,1.7,26.7.9,40a4.32,4.32,0,0,0,.8,3.5,4.47,4.47,0,0,0,2.8.9c11.7.9,27.5.4,39.1,1.3a11.56,11.56,0,0,0,6.6-1.5,10.92,10.92,0,0,0,1.6-5c1.7-13.2.3-25.5-2.8-41.9-3.4-.3-6.6-1.1-6.1-4.5a20.69,20.69,0,0,0-6.1-.3"/>
  <path class="cls-3" d="M21.9,30.6c.6-.4,1.3.2,1.8.7a10.27,10.27,0,0,0,8.3,3,9.69,9.69,0,0,0,7.4-4.8c1,1.2-1-1.1,0,0,2.1,2.3,8.3,7.1,11.4,6.2a8.72,8.72,0,0,0,6-6.7,10.73,10.73,0,0,0,6.8,6.2c3.1.8,6.8-.4,8.3-3.2"/>
  <line class="cls-4" x1="39.4" y1="30.3" x2="39.2" y2="52.4"/>
  <line class="cls-4" x1="56.9" y1="30.6" x2="56.9" y2="53.1"/>
  <path class="cls-5" d="M59.6,22.3c0,3.7-5.1,6.7-11.4,6.7s-11.4-3-11.4-6.7,5.1-6.7,11.4-6.7S59.6,18.6,59.6,22.3ZM48,18.1a1.34,1.34,0,0,0-1.8.6c-.2.6.3,1.2,1.1,1.5a1.34,1.34,0,0,0,1.8-.6C49.3,19,48.8,18.4,48,18.1Zm-2.6,3.2a1.34,1.34,0,0,0-1.8.6c-.2.6.3,1.2,1.1,1.5a1.34,1.34,0,0,0,1.8-.6C46.7,22.2,46.2,21.6,45.4,21.3Zm7.2-1.7a1.34,1.34,0,0,0-1.8.6c-.2.6.3,1.2,1.1,1.5a1.34,1.34,0,0,0,1.8-.6C53.9,20.5,53.4,19.9,52.6,19.6Zm-6,3.8a1.33,1.33,0,0,0-1.7.8c-.1.6.4,1.2,1.3,1.4a1.33,1.33,0,0,0,1.7-.8C48,24.2,47.4,23.6,46.6,23.4Zm2.6-1.9a1.33,1.33,0,0,0-1.7.8c-.1.6.4,1.2,1.3,1.4a1.33,1.33,0,0,0,1.7-.8A1.4,1.4,0,0,0,49.2,21.5Zm2.7,2a1.34,1.34,0,0,0-1.8.6c-.2.6.3,1.2,1.1,1.5A1.34,1.34,0,0,0,53,25,1.29,1.29,0,0,0,51.9,23.5Z"/>
</svg>
