<?xml version="1.0" encoding="utf-8"?>
<!-- Generator: Adobe Illustrator 24.0.1, SVG Export Plug-In . SVG Version: 6.00 Build 0)  -->
<svg version="1.1" id="dim_sum_1_" xmlns="http://www.w3.org/2000/svg" xmlns:xlink="http://www.w3.org/1999/xlink" x="0px" y="0px"
	 viewBox="0 0 96.6 96.6" style="enable-background:new 0 0 96.6 96.6;" xml:space="preserve">
<style type="text/css">
	.st0{fill:#F9C19B;stroke:#DF9B5F;stroke-miterlimit:10;}
	.st1{fill:#F3F4CB;stroke:#000000;stroke-miterlimit:10;}
	.st2{fill:none;stroke:#000000;stroke-miterlimit:10;}
</style>
<circle class="st0" cx="48" cy="48.5" r="47.8"/>
<circle class="st0" cx="47.8" cy="48.5" r="42"/>
<path id="soup-dumpling" class="st1" d="M28.5,19.7c-10.4,6.5-15.8,17.7-15.8,31.1c0,4.1,4.4,22,25,27.5
	c21.2,5.6,35.1-3.6,41.1-12.9c5.4-8.5,3.6-20.6,0-29.4C74.6,26.1,64.2,18,53,16.7C42.2,15.3,34.4,16,28.5,19.7z"/>
<path class="st2" d="M22.5,59c1.6-2.9,3.3-6,6.2-7.7c2.2-1.3,4.9-1.7,7.3-2.8c2.4-1.1,4.6-3.4,4.2-5.9 M36.2,66.1
	c0.3-3.3,2-6.2,3.3-9.1c1.8-3.8,3-7.9,3.6-12.2 M48.2,45.8c-0.2,5.6-0.4,11.1-0.5,16.7 M53,45.8c0.4,4.7,1.7,9.3,4,13.5
	c1.1,2,2.4,3.9,2.6,6.1 M57.3,45.9c-0.6,1.7,0.3,3.7,1.6,4.9c1.3,1.2,3,2,4.7,2.8c2.7,1.4,5.3,3.3,7.5,5.4 M76.4,47.4
	c-4.3-3.4-10.2-3.8-15.1-6.3 M65.3,26.2c-1.2,0.6-2.5,1.3-3.7,1.9c-1.9,1-4,2.4-4.1,4.5 M51.3,23.5c-2.1,2.4-3.1,5.7-2.8,8.8
	 M41.7,34c-1.6-4.7-3.6-9.8-8-12.1 M32.1,36.9c-1.3-0.8-2.2-2.1-3.4-3.1c-1.8-1.5-4.1-2.4-6.5-2.4 M33.2,42.9
	c-5.5-0.2-11.6-0.1-15.6,3.7 M48,35.3c-4.9,0-8.8,1.6-8.8,3.5c0,0.7,0.6,1.4,1.5,2c1.6,0.9,4.3,1.5,7.3,1.5c8.8,0.1,8.8-1.6,8.8-3.5
	C56.8,36.9,52.9,35.3,48,35.3z"/>
</svg>
