<svg id="dim_sum" data-name="dim sum" xmlns="http://www.w3.org/2000/svg" viewBox="0 0 96.6 96.6">
  <defs>
    <style>
      .cls-1 {
        fill: #f9c19b;
        stroke: #df9b5f;
      }

      .cls-1, .cls-2, .cls-3 {
        stroke-miterlimit: 10;
      }

      .cls-2 {
        fill: #f3f4cb;
      }

      .cls-2, .cls-3 {
        stroke: #000;
      }

      .cls-3 {
        fill: none;
      }
    </style>
  </defs>
  <title>soup-dumpling</title>
  <circle class="cls-1" cx="48.3" cy="48.3" r="47.8"/>
  <circle class="cls-1" cx="48.1" cy="48.3" r="42"/>
  <path id="soup-dumpling" class="cls-2" d="M28.5,19.7C18.1,26.2,12.7,37.4,12.7,50.8c0,4.1,4.4,22,25,27.5,21.2,5.6,35.1-3.6,41.1-12.9,5.4-8.5,3.6-20.6,0-29.4A33.31,33.31,0,0,0,53,16.7C42.2,15.3,34.4,16,28.5,19.7Z" transform="translate(0.3 -0.2)"/>
  <path class="cls-3" d="M22.5,59c1.6-2.9,3.3-6,6.2-7.7,2.2-1.3,4.9-1.7,7.3-2.8s4.6-3.4,4.2-5.9m-4,23.5c.3-3.3,2-6.2,3.3-9.1a42,42,0,0,0,3.6-12.2m5.1,1c-.2,5.6-.4,11.1-.5,16.7M53,45.8a34,34,0,0,0,4,13.5c1.1,2,2.4,3.9,2.6,6.1M57.3,45.9a4.88,4.88,0,0,0,1.6,4.9,18.29,18.29,0,0,0,4.7,2.8A33.26,33.26,0,0,1,71.1,59m5.3-11.6c-4.3-3.4-10.2-3.8-15.1-6.3m4-14.9c-1.2.6-2.5,1.3-3.7,1.9-1.9,1-4,2.4-4.1,4.5m-6.2-9.1a11.84,11.84,0,0,0-2.8,8.8M41.7,34c-1.6-4.7-3.6-9.8-8-12.1m-1.6,15c-1.3-.8-2.2-2.1-3.4-3.1a10.21,10.21,0,0,0-6.5-2.4m11,11.5c-5.5-.2-11.6-.1-15.6,3.7M48,35.3c-4.9,0-8.8,1.6-8.8,3.5,0,.7.6,1.4,1.5,2A15.91,15.91,0,0,0,48,42.3c8.8.1,8.8-1.6,8.8-3.5S52.9,35.3,48,35.3Z" transform="translate(0.3 -0.2)"/>
</svg>
