<svg id="dim_sum" data-name="dim sum" xmlns="http://www.w3.org/2000/svg" viewBox="0 0 96.6 96.6">
  <defs>
    <style>
      .cls-1 {
        fill: #f9c19b;
        stroke: #df9b5f;
      }

      .cls-1, .cls-2, .cls-3, .cls-4 {
        stroke-miterlimit: 10;
      }

      .cls-2 {
        fill: #456629;
      }

      .cls-2, .cls-3 {
        stroke: #050000;
      }

      .cls-3, .cls-4 {
        fill: none;
      }

      .cls-4 {
        stroke: #000;
      }
    </style>
  </defs>
  <title>sticky-rice</title>
  <circle class="cls-1" cx="48.3" cy="48.3" r="47.8"/>
  <circle class="cls-1" cx="48.1" cy="48.3" r="42"/>
  <path id="leaf2" class="cls-2" d="M21.6,33.6c3.5-4,15.3-6.9,21-6l2.2.3c.4.1,4.5.7,6.4,3.9,2.5,4.2,8.1,28.1,5.4,31.5s-7.8,4.4-13.5,4.5-1.4,3-4.9,4.4S27.8,73.5,24.8,67,15.3,40.7,21.6,33.6Z"/>
  <path id="leaf1" class="cls-2" d="M45.1,28c1.8-2.4,18.7-2.9,22.2,0s4.4,3.6,6.3,10.6,4.5,13.8,3.5,19.8-.7,7.1-5.2,11.1S34,72.9,34,72.9"/>
  <path class="cls-3" d="M53.3,65.9c2.2,1.5,13.6,3.3,17.4,1.6A16.36,16.36,0,0,0,76,64.1"/>
  <path class="cls-3" d="M38.5,71.7a162.42,162.42,0,0,0-6.2-18.2,72.82,72.82,0,0,1-3.1-7.7c-.4-1.3-.4-2.9-.8-4.1s-1.7-1.9-2.6-2.7a20.14,20.14,0,0,1-4.4-4.8c-.1-.2-.2-.3-.3-.5"/>
  <path class="cls-3" d="M50.1,66.7C49,63.3,48,59.9,46.9,56.5c-.4-1.4-.9-2.9-1.3-4.3a40.71,40.71,0,0,1-1.3-5c-.4-2.5-.1-5-.5-7.5-.1-.9-.4-1.4-.1-2.3a23.29,23.29,0,0,1,2-3.4c.4-.8.8-1.6,1.3-2.5a4.84,4.84,0,0,0,.7-2.6"/>
  <path class="cls-3" d="M66.2,27c.3.3.1.8-.1,1.2a36,36,0,0,1-2,3.9c-.7,1.2-1.9,2.4-2.3,3.6-1,2.9.4,7.1,1.1,9.9,1.8,7.4,3.7,14.9,4.3,22.5"/>
  <path d="M54.9,26.1c-.2-.1-.2.3-.1.5a13,13,0,0,0,1.8,2.3c.4.5.9.9,1.3,1.4,1.5,1.8,2.1,4.1,3.6,5.8"/>
  <path d="M37.8,28c1.9,3.1,4.5,5.9,6,9.3"/>
  <path d="M27.3,30.2a57.88,57.88,0,0,0,1.2,11"/>
  <line class="cls-4" x1="19" y1="44.4" x2="28.4" y2="41.7"/>
  <line class="cls-4" x1="28.1" y1="39.4" x2="42.5" y2="35.7"/>
  <line class="cls-4" x1="43.9" y1="40.5" x2="53.7" y2="38.9"/>
  <line class="cls-4" x1="52.4" y1="34.7" x2="60.2" y2="34.2"/>
  <line class="cls-4" x1="61.5" y1="38.6" x2="73.1" y2="36.6"/>
  <line class="cls-4" x1="54.5" y1="42.1" x2="61.9" y2="41.2"/>
  <line class="cls-4" x1="62.6" y1="44.3" x2="74.7" y2="42.3"/>
  <line class="cls-4" x1="55.8" y1="47.9" x2="63.2" y2="46.9"/>
  <line class="cls-4" x1="55.2" y1="45" x2="44.3" y2="47.2"/>
  <line class="cls-4" x1="44" y1="42.4" x2="29.3" y2="45.8"/>
  <line class="cls-4" x1="29.8" y1="47.6" x2="19.7" y2="50.8"/>
  <line class="cls-4" x1="31.8" y1="52.3" x2="20.9" y2="55.9"/>
  <line class="cls-4" x1="33.2" y1="55.5" x2="45.8" y2="52.7"/>
  <line class="cls-4" x1="46.8" y1="55.5" x2="56.8" y2="54.1"/>
  <line class="cls-4" x1="56.6" y1="52.7" x2="64.4" y2="51.7"/>
  <line class="cls-4" x1="64.9" y1="54.1" x2="77.4" y2="52.7"/>
  <line class="cls-4" x1="65.9" y1="58.9" x2="57.3" y2="59.9"/>
  <line class="cls-4" x1="47.4" y1="58.1" x2="35.3" y2="61.6"/>
  <line class="cls-4" x1="34.6" y1="59.4" x2="23.7" y2="63.2"/>
  <line class="cls-4" x1="26.7" y1="69.9" x2="36.6" y2="66.7"/>
  <line class="cls-3" x1="36.6" y1="65.6" x2="48.8" y2="62.4"/>
</svg>
