<?xml version="1.0" encoding="utf-8"?>
<!-- Generator: Adobe Illustrator 24.0.1, SVG Export Plug-In . SVG Version: 6.00 Build 0)  -->
<svg version="1.1" id="dim_sum_1_" xmlns="http://www.w3.org/2000/svg" xmlns:xlink="http://www.w3.org/1999/xlink" x="0px" y="0px"
	 viewBox="0 0 96.6 96.6" style="enable-background:new 0 0 96.6 96.6;" xml:space="preserve">
<style type="text/css">
	.st0{fill:#F9C19B;stroke:#DF9B5F;stroke-miterlimit:10;}
	.st1{fill:#F3F4CB;stroke:#000000;stroke-miterlimit:10;}
	.st2{fill:none;stroke:#000000;stroke-miterlimit:10;}
</style>
<circle class="st0" cx="48.3" cy="48.3" r="47.8"/>
<circle class="st0" cx="48.1" cy="48.3" r="42"/>
<circle id="sweet-pork-bun" class="st1" cx="48.3" cy="48.8" r="34.2"/>
<path class="st2" d="M39.3,23.7c3.5-3.3,8.4-6.5,12.4-9.2 M42.6,46.9c1.6-6.1,1.6-15.7-3.3-23.2c-1.5-2.3-3.3-4.2-4.6-6.7
	 M39.8,82.3c4.3-5.1,7.5-11,8.3-17.4s-0.9-13.2-5.5-18c-2.6-2.8-6.1-4.9-9.4-6.9c-5.3-3.2-9.8-6.7-16-5.6 M72.1,25.1
	c-6.3,1.9-12.3,5.2-16.4,10.1s-6.4,11.6-5.2,18.1c0.7,3.8,2.5,7.4,4.2,10.9c2.7,5.5,6,11.6,11.8,14"/>
</svg>
